<svg width="132" height="130" viewBox="0 0 132 130" fill="none" xmlns="http://www.w3.org/2000/svg">
<path d="M28.6617 101.334C30.0793 102.065 30.6981 102.922 30.5181 103.903C30.3228 104.915 29.679 105.649 28.5864 106.106C27.4567 106.55 26.2734 106.311 25.0363 105.39C20.0074 99.8428 15.5327 93.1719 11.612 85.3768C7.67613 77.6126 4.66135 69.3874 2.56765 60.7014C0.458764 52.0462 -0.351054 43.615 0.138193 35.4078C0.590271 27.188 2.72699 19.8617 6.54834 13.429C8.46164 10.3392 10.8793 7.546 13.8014 5.04921C17.4595 1.93908 21.6642 0.271619 26.4155 0.0468419C31.1667 -0.177935 35.8662 0.406254 40.5138 1.79941C48.7988 4.17193 56.445 7.53213 63.4527 11.88C70.4232 16.2153 76.7252 21.115 82.3587 26.579C93.5074 37.395 103.221 49.055 111.499 61.5589C119.763 74.0936 125.917 87.2982 129.964 101.173C131.048 105.133 131.716 109.276 131.969 113.602C132.207 117.959 131.079 121.961 128.587 125.61C127.539 126.944 126.151 128.001 124.422 128.782C122.714 129.605 120.888 130.011 118.942 130C116.587 129.85 114.378 129.318 112.313 128.403C110.233 127.52 108.285 126.501 106.468 125.347C92.4683 116.621 81.3458 105.796 73.1009 92.8717C72.7187 92.2393 72.6422 91.6026 72.8715 90.9615C73.138 90.3329 73.6418 89.8387 74.3831 89.4786C75.1987 89.1437 76.0043 89.093 76.8001 89.3263C77.5958 89.5597 78.1881 90.0296 78.5771 90.7362C82.281 97.7392 87.1264 104.23 93.1133 110.209C99.085 116.219 105.997 121.289 113.849 125.419C115.483 126.152 117.224 126.579 119.072 126.702C121.81 126.514 123.823 125.597 125.112 123.949C126.387 122.332 127.156 120.418 127.422 118.208C127.724 116.011 127.753 113.972 127.509 112.093C126.396 104.673 124.069 97.0757 120.528 89.3014C116.987 81.5272 112.789 73.9436 107.933 66.5507C103.114 59.1703 98.2302 52.361 93.282 46.1227C88.3473 40.0328 82.9263 34.1377 77.0191 28.4373C71.1118 22.7369 64.5572 17.7338 57.3553 13.428C50.1011 9.14042 42.0572 6.05891 33.2237 4.1835C30.7151 3.72983 28.2109 3.61905 25.7112 3.85116C23.1592 4.10149 20.8338 4.85974 18.7352 6.12593C16.7396 7.53483 14.9739 9.09336 13.438 10.8015C9.11407 15.8784 6.28367 21.5325 4.94683 27.7639C3.59481 34.0262 3.23351 40.3901 3.86292 46.8557C4.47716 53.3522 5.60128 59.5181 7.23527 65.3534C8.25619 68.8252 9.74041 73.0288 11.688 77.9641C13.6203 82.9302 16.0212 87.6056 18.8906 91.9905C21.7448 96.4061 25.0019 99.5207 28.6617 101.334Z" fill="#DD3933"/>
</svg>
